{"accessors":[{"bufferView":0,"componentType":5126,"count":4,"type":"VEC3"},{"bufferView":1,"componentType":5126,"count":4,"max":[0.4205000134199623,0.0015000000712461772,0.2970000094785465],"min":[-0.4205000134199623,0.0015000000712461772,-0.2970000094785465],"type":"VEC3"},{"bufferView":2,"componentType":5126,"count":4,"type":"VEC2"},{"bufferView":3,"componentType":5123,"count":6,"type":"SCALAR"},{"bufferView":4,"componentType":5126,"count":4,"type":"VEC3"},{"bufferView":5,"componentType":5126,"count":4,"max":[0.4205000134199623,-0.0015000000712461772,0.2970000094785465],"min":[-0.4205000134199623,-0.0015000000712461772,-0.2970000094785465],"type":"VEC3"},{"bufferView":6,"componentType":5126,"count":4,"type":"VEC2"},{"bufferView":7,"componentType":5123,"count":6,"type":"SCALAR"},{"bufferView":8,"componentType":5126,"count":112,"type":"VEC3"},{"bufferView":9,"componentType":5126,"count":112,"type":"VEC3"},{"bufferView":10,"componentType":5126,"count":112,"max":[0.4205000134199623,0.0015000000712461772,0.2970000094785465],"min":[-0.4205000134199623,-0.0015000000712461772,-0.2970000094785465],"type":"VEC3"},{"bufferView":11,"componentType":5126,"count":112,"type":"VEC2"},{"bufferView":12,"componentType":5123,"count":288,"type":"SCALAR"}],"asset":{"generator":"Probability Play","version":"2.0"},"bufferViews":[{"buffer":0,"byteLength":48,"byteOffset":0,"target":34962},{"buffer":0,"byteLength":48,"byteOffset":48,"target":34962},{"buffer":0,"byteLength":32,"byteOffset":96,"target":34962},{"buffer":0,"byteLength":12,"byteOffset":128,"target":34963},{"buffer":0,"byteLength":48,"byteOffset":140,"target":34962},{"buffer":0,"byteLength":48,"byteOffset":188,"target":34962},{"buffer":0,"byteLength":32,"byteOffset":236,"target":34962},{"buffer":0,"byteLength":12,"byteOffset":268,"target":34963},{"buffer":0,"byteLength":1344,"byteOffset":280,"target":34962},{"buffer":0,"byteLength":1344,"byteOffset":1624,"target":34962},{"buffer":0,"byteLength":1344,"byteOffset":2968,"target":34962},{"buffer":0,"byteLength":896,"byteOffset":4312,"target":34962},{"buffer":0,"byteLength":576,"byteOffset":5208,"target":34963}],"materials":[{"name":"private-play-area","alphaMode":"OPAQUE","pbrMetallicRoughness":{"baseColorFactor":[0.1,0.15,0.18,1],"metallicFactor":0,"roughnessFactor":1}}],"meshes":[{"name":"Piece","primitives":[{"attributes":{"NORMAL":0,"POSITION":1,"TEXCOORD_0":2},"indices":3,"material":0,"mode":4},{"attributes":{"NORMAL":4,"POSITION":5,"TEXCOORD_0":6},"indices":7,"material":0,"mode":4},{"attributes":{"COLOR_0":8,"NORMAL":9,"POSITION":10,"TEXCOORD_0":11},"indices":12,"material":0,"mode":4}]}],"nodes":[{"mesh":0,"name":"Piece"}],"scene":0,"scenes":[{"nodes":[0]}],"buffers":[{"byteLength":5784,"uri":"/resources/private-play-area.bin"}]}