{"accessors":[{"bufferView":0,"componentType":5126,"count":4,"type":"VEC3"},{"bufferView":1,"componentType":5126,"count":4,"max":[0.20000000298023224,0.0020000000949949026,0.20000000298023224],"min":[-0.20000000298023224,0.0020000000949949026,-0.20000000298023224],"type":"VEC3"},{"bufferView":2,"componentType":5126,"count":4,"type":"VEC2"},{"bufferView":3,"componentType":5123,"count":6,"type":"SCALAR"},{"bufferView":4,"componentType":5126,"count":4,"type":"VEC3"},{"bufferView":5,"componentType":5126,"count":4,"max":[0.20000000298023224,-0.0020000000949949026,0.20000000298023224],"min":[-0.20000000298023224,-0.0020000000949949026,-0.20000000298023224],"type":"VEC3"},{"bufferView":6,"componentType":5126,"count":4,"type":"VEC2"},{"bufferView":7,"componentType":5123,"count":6,"type":"SCALAR"},{"bufferView":8,"componentType":5126,"count":128,"type":"VEC3"},{"bufferView":9,"componentType":5126,"count":128,"type":"VEC3"},{"bufferView":10,"componentType":5126,"count":128,"max":[0.20000000298023224,0.0020000000949949026,0.20000000298023224],"min":[-0.20000000298023224,-0.0020000000949949026,-0.20000000298023224],"type":"VEC3"},{"bufferView":11,"componentType":5126,"count":128,"type":"VEC2"},{"bufferView":12,"componentType":5123,"count":312,"type":"SCALAR"}],"asset":{"generator":"Probability Play","version":"2.0"},"bufferViews":[{"buffer":0,"byteLength":48,"byteOffset":0,"target":34962},{"buffer":0,"byteLength":48,"byteOffset":48,"target":34962},{"buffer":0,"byteLength":32,"byteOffset":96,"target":34962},{"buffer":0,"byteLength":12,"byteOffset":128,"target":34963},{"buffer":0,"byteLength":48,"byteOffset":140,"target":34962},{"buffer":0,"byteLength":48,"byteOffset":188,"target":34962},{"buffer":0,"byteLength":32,"byteOffset":236,"target":34962},{"buffer":0,"byteLength":12,"byteOffset":268,"target":34963},{"buffer":0,"byteLength":1536,"byteOffset":280,"target":34962},{"buffer":0,"byteLength":1536,"byteOffset":1816,"target":34962},{"buffer":0,"byteLength":1536,"byteOffset":3352,"target":34962},{"buffer":0,"byteLength":1024,"byteOffset":4888,"target":34962},{"buffer":0,"byteLength":624,"byteOffset":5912,"target":34963}],"extensionsUsed":[],"extensionsRequired":[],"images":[{"mimeType":"image/svg+xml","uri":"/resources/embedded-resource-2.svg"}],"materials":[{"name":"plain edge","alphaMode":"BLEND","pbrMetallicRoughness":{"baseColorFactor":[0.5244814319774574,0.3798969333052236,0.16018950514334768,0.8933866879425382],"metallicFactor":0,"roughnessFactor":0.86}},{"alphaMode":"BLEND","name":"printed face","pbrMetallicRoughness":{"baseColorTexture":{"index":0},"metallicFactor":0,"roughnessFactor":0.8}},{"name":"plain face","alphaMode":"BLEND","pbrMetallicRoughness":{"baseColorFactor":[0.5244814319774574,0.3798969333052236,0.16018950514334768,0.8933866879425382],"metallicFactor":0,"roughnessFactor":0.86}}],"meshes":[{"name":"Piece","primitives":[{"attributes":{"NORMAL":0,"POSITION":1,"TEXCOORD_0":2},"indices":3,"material":1,"mode":4},{"attributes":{"NORMAL":4,"POSITION":5,"TEXCOORD_0":6},"indices":7,"material":2,"mode":4},{"attributes":{"COLOR_0":8,"NORMAL":9,"POSITION":10,"TEXCOORD_0":11},"indices":12,"material":0,"mode":4}]}],"nodes":[{"mesh":0,"name":"Piece"}],"samplers":[{"magFilter":9729,"minFilter":9987,"wrapS":33071,"wrapT":33071}],"scene":0,"scenes":[{"nodes":[0]}],"textures":[{"sampler":0,"source":0}],"buffers":[{"uri":"/resources/embedded-resource-3.bin","byteLength":6536}]}